<svg xmlns="http://www.w3.org/2000/svg" viewBox="0 0 1044.78 326.89"><defs><style>.cls-1{fill:#ff7602;}.cls-2{fill:#fff;}.cls-3{fill:#222221;}</style></defs><title>Spanish horizontal pos left aligned</title><g id="Layer_1" data-name="Layer 1"><rect class="cls-1" x="50.23" y="50.23" width="226.41" height="226.42"/><path class="cls-2" d="M116.37,226.37,91,179.33l.42,47H74.8V147.62H91.39l25.41,47-.42-47H133v78.74Z"/><path class="cls-2" d="M158.65,226.37h-16.8V147.62h26.77c21.21,0,28.53,9.66,28.14,24.67-.36,13.46-5.39,17.22-13.68,21.2l19.27,32.87H182.71l-15.91-29.5h-8.16Zm0-44.73h11.44c7.45,0,8.41-5,8.41-9.34s-1-9.34-8.41-9.34H158.65Z"/><path class="cls-2" d="M235.7,146.15c9.13,0,13.23,1.68,16.38,2.95v15.85a34.81,34.81,0,0,0-14.7-3c-12.8,0-18.69,5.14-18.69,25.09s5.88,25.09,18.69,25.09a34.81,34.81,0,0,0,14.7-3V224.9c-3.15,1.26-7.25,2.93-16.37,2.93-23,0-33.91-11.23-34-40.84C201.79,157.39,212.7,146.15,235.7,146.15Z"/><path class="cls-3" d="M364.82,176.65c-1.9,8.51-9.07,17.39-22.09,17.39-14.79,0-21.9-11.11-21.9-23.55,0-12.7,7.3-23.55,22.73-23.55s19.3,10.73,20.38,13.71l-6,1.27a13,13,0,0,0-2.66-5,14.82,14.82,0,0,0-11.75-5.2,15.45,15.45,0,0,0-12.31,5.65c-2.85,3.55-3.74,8.25-3.74,12.82,0,11.11,5.65,18.92,16,18.92,6.66,0,13.46-3.75,14.86-13.2Z"/><path class="cls-3" d="M394.54,194c-13.65,0-22.41-9.58-22.41-23.55,0-16.63,11.48-23.55,22.59-23.55,12.57,0,22.54,8.5,22.54,23.11C417.26,183.5,409.39,194,394.54,194Zm.19-42.27c-11.3,0-16.12,8.7-16.12,18.79,0,9.39,4.63,18.79,16.18,18.79,12.06,0,16.06-10,16-19.23C410.72,159.26,405.08,151.76,394.72,151.76Z"/><path class="cls-3" d="M463.18,148.08V192.9h-5.39l-24.57-36.44.51,36.44h-5.59V148.08h5.59L458,184l-.25-35.93Z"/><path class="cls-3" d="M491.4,172.2c-6.48-1.33-16-3.49-16-12.76a11.21,11.21,0,0,1,4.13-8.7c4-3.43,8.88-3.81,12-3.81s8,.32,12.06,3.3c4.45,3.24,5.34,7.81,5.77,10.54l-6,.38a9.22,9.22,0,0,0-3.62-7.43,13.43,13.43,0,0,0-8-2.16c-5.4,0-10.16,2.22-10.16,7s4.95,6.09,8.82,7l5,1.27a45.46,45.46,0,0,1,7,2c6.73,2.79,7.74,8.19,7.74,11.17a12.66,12.66,0,0,1-5.71,10.86C500.1,193.79,495,194,492.23,194c-4.06,0-18-.63-19-15.42l6.41-.83a11.49,11.49,0,0,0,3.62,8.63,13.73,13.73,0,0,0,9.2,3c6.35,0,11.17-3.11,11.17-8.95,0-5.21-4.12-6.6-8.51-7.49Z"/><path class="cls-3" d="M526.85,172.46v15.23h25.9v5.2H521.08V148.08H552v5.27H526.85v13.84h21.84v5.27Z"/><path class="cls-3" d="M577.81,148V181c0,3.43,0,6.47-2.6,9.33-3.11,3.43-7.17,3.68-9.65,3.68a28.39,28.39,0,0,1-6-.63v-6.48a10.91,10.91,0,0,0,5.27,1.27,8.94,8.94,0,0,0,4.19-.89c2.73-1.4,2.73-4,2.73-8.82V148Z"/><path class="cls-3" d="M610.94,194c-13.65,0-22.41-9.58-22.41-23.55,0-16.63,11.49-23.55,22.6-23.55,12.56,0,22.53,8.5,22.53,23.11C633.67,183.5,625.79,194,610.94,194Zm.2-42.27c-11.3,0-16.12,8.7-16.12,18.79,0,9.39,4.63,18.79,16.19,18.79,12.05,0,16.05-10,16-19.23C627.13,159.26,621.48,151.76,611.14,151.76Z"/><path class="cls-3" d="M699.09,148.08V192.9H693.7l-24.57-36.44.51,36.44h-5.59V148.08h5.59L694,184l-.25-35.93Z"/><path class="cls-3" d="M732.4,194c-13.65,0-22.41-9.58-22.41-23.55,0-16.63,11.48-23.55,22.59-23.55,12.57,0,22.53,8.5,22.53,23.11C755.11,183.5,747.25,194,732.4,194Zm.19-42.27c-11.3,0-16.12,8.7-16.12,18.79,0,9.39,4.63,18.79,16.19,18.79,12.06,0,16.06-10,16-19.23C748.58,159.26,742.93,151.76,732.58,151.76Z"/><path class="cls-3" d="M771.84,173.85v19H766V148.08h16.63c6.22.06,9.9.06,13.39,2.73,3.3,2.48,4.7,6.22,4.7,10.35,0,10.47-8.44,11.93-10.6,12.32l12.57,19.42h-7.11l-12.19-19Zm0-4.95h11.88a22.12,22.12,0,0,0,5.46-.45c4.13-1,5.59-4,5.59-7.24a8,8,0,0,0-2.67-6.29c-2.34-2-5.27-1.9-8.7-1.9H771.84Z"/><path class="cls-3" d="M844.94,148v28.63a27.61,27.61,0,0,1-.58,5.84c-1.27,5.39-6.28,11.49-16.76,11.49-3.3,0-9.52-.51-13.77-6-3-3.81-2.91-7.18-2.91-12.19V148h6v27c-.06,4.13-.06,7.62,2.29,10.47,2.66,3.3,6.6,3.49,8.38,3.49,5.27,0,9.4-2.54,10.73-7.43a28.54,28.54,0,0,0,.57-6.66V148Z"/><path class="cls-3" d="M863.5,172.46v15.23h25.9v5.2H857.72V148.08h30.91v5.27H863.5v13.84h21.84v5.27Z"/><path class="cls-3" d="M939.25,169.22V192.9h-5.14v-6.29c-3.74,5.46-10.28,7.43-16.37,7.43-13.84,0-22.34-9.71-22.34-23,0-11.43,6.85-24.12,23.17-24.12a23,23,0,0,1,15.61,5.71,23.45,23.45,0,0,1,5.08,7.23l-6.16,1.65a14.36,14.36,0,0,0-3.11-5.27c-1.77-1.91-5.33-4.38-11.23-4.38-12.57,0-16.82,10.41-16.82,18.54,0,8.44,4.38,18.41,16.56,18.41,5.52,0,15.81-2.73,15.62-14.6H918.43v-5Z"/><path class="cls-3" d="M971.83,194c-13.65,0-22.41-9.58-22.41-23.55,0-16.63,11.48-23.55,22.59-23.55,12.57,0,22.53,8.5,22.53,23.11C994.54,183.5,986.68,194,971.83,194Zm.19-42.27c-11.3,0-16.12,8.7-16.12,18.79,0,9.39,4.63,18.79,16.19,18.79,12.06,0,16.06-10,16-19.23C988,159.26,982.36,151.76,972,151.76Z"/><path class="cls-3" d="M330.86,247.12v19h-5.78V221.28h19.36a22.9,22.9,0,0,1,7.11.77c5.27,1.84,7.68,6.73,7.68,11.93,0,4.89-2.28,10.6-8.25,12.45a23.44,23.44,0,0,1-7.17.7Zm0-5.27h12.5c3.43,0,5.78,0,7.81-2a8.35,8.35,0,0,0,2.16-6,7.15,7.15,0,0,0-2.35-5.71c-2-1.65-4.19-1.71-6.28-1.71H330.86Z"/><path class="cls-3" d="M388.64,252.38H371.56l-5,13.71H360.2l17.07-44.82h6.23l16.31,44.82h-6.29Zm-1.78-5-6.54-18.66-6.85,18.66Z"/><path class="cls-3" d="M414.13,247.05v19h-5.84V221.28h16.63c6.23.07,9.91.07,13.4,2.73,3.3,2.48,4.7,6.22,4.7,10.35,0,10.47-8.45,11.93-10.6,12.31L445,266.1h-7.11l-12.19-19Zm0-5H426a22.25,22.25,0,0,0,5.45-.44c4.13-1,5.59-4,5.59-7.24a8,8,0,0,0-2.66-6.28c-2.35-2-5.27-1.91-8.7-1.91H414.13Z"/><path class="cls-3" d="M479.72,252.38H462.65l-5,13.71h-6.34l17.08-44.82h6.22L490.9,266.1h-6.28Zm-1.78-5-6.53-18.66-6.86,18.66Z"/><path class="cls-3" d="M524.72,247.05v19h-5.84V221.28H535.5c6.22.07,9.9.07,13.39,2.73,3.3,2.48,4.7,6.22,4.7,10.35,0,10.47-8.45,11.93-10.6,12.31l12.56,19.43h-7.11l-12.19-19Zm0-5h11.87a22.31,22.31,0,0,0,5.46-.44c4.13-1,5.59-4,5.59-7.24a8,8,0,0,0-2.66-6.28c-2.35-2-5.27-1.91-8.7-1.91H524.72Z"/><path class="cls-3" d="M570.12,245.65v15.23H596v5.21H564.34V221.28h30.91v5.27H570.12v13.84H592v5.27Z"/><path class="cls-3" d="M610.94,245V266.1h-6V221.22h28.76v5.33H610.94v13.27h21.2V245Z"/><path class="cls-3" d="M676.08,221.22v28.63a27.08,27.08,0,0,1-.57,5.84c-1.27,5.39-6.28,11.49-16.76,11.49-3.3,0-9.52-.51-13.77-6-3-3.81-2.92-7.17-2.92-12.19v-27.8h6v27c-.06,4.13-.06,7.62,2.28,10.48,2.67,3.3,6.6,3.49,8.38,3.49,5.27,0,9.39-2.54,10.73-7.43a28.56,28.56,0,0,0,.57-6.66V221.22Z"/><path class="cls-3" d="M730.53,242.42V266.1h-5.14v-6.29c-3.74,5.46-10.28,7.43-16.37,7.43-13.84,0-22.34-9.71-22.34-23,0-11.43,6.85-24.12,23.17-24.12a23,23,0,0,1,15.61,5.71,23.5,23.5,0,0,1,5.08,7.24l-6.16,1.65a14.34,14.34,0,0,0-3.11-5.27c-1.77-1.91-5.33-4.38-11.23-4.38-12.57,0-16.82,10.41-16.82,18.53,0,8.45,4.38,18.41,16.56,18.41,5.52,0,15.81-2.73,15.62-14.6H709.71v-5Z"/><path class="cls-3" d="M748.72,221.28V266.1h-6V221.28Z"/><path class="cls-3" d="M785.14,252.38H768.07l-5,13.71H756.7l17.08-44.82H780l16.31,44.82H790Zm-1.77-5-6.54-18.66L770,247.37Z"/><path class="cls-3" d="M804.79,221.28h14c6.35,0,12,0,17.2,5.52,5.4,5.78,5.59,13.71,5.59,16.89s-.12,11.87-6.28,17.64c-5.21,4.76-11.3,4.76-15.11,4.76H804.79Zm6.09,5.27V261h7.94c3.94-.07,6.92-.13,9.91-1.84s6.79-5.71,6.79-15.36c0-7.36-2.16-14.22-9.33-16.44-2.48-.76-5.08-.76-8.26-.76Z"/><path class="cls-3" d="M873,267.24c-13.65,0-22.41-9.59-22.41-23.55,0-16.63,11.48-23.55,22.59-23.55,12.57,0,22.53,8.51,22.53,23.11C895.74,256.7,887.87,267.24,873,267.24Zm.19-42.28c-11.3,0-16.12,8.7-16.12,18.79,0,9.39,4.63,18.79,16.19,18.79,12.06,0,16.06-10,16-19.23C889.21,232.45,883.55,225,873.21,225Z"/><path class="cls-3" d="M921.84,245.4c-6.48-1.34-16-3.49-16-12.76a11.23,11.23,0,0,1,4.13-8.7c4-3.43,8.89-3.81,12-3.81s8,.32,12.06,3.3c4.44,3.24,5.33,7.81,5.77,10.54l-6,.38a9.17,9.17,0,0,0-3.62-7.43,13.45,13.45,0,0,0-8-2.16c-5.39,0-10.16,2.22-10.16,7s5,6.09,8.83,7l4.95,1.27a45.55,45.55,0,0,1,7,2c6.73,2.79,7.74,8.19,7.74,11.17a12.66,12.66,0,0,1-5.71,10.86c-4.31,2.92-9.45,3.18-12.19,3.18-4.06,0-18-.64-19-15.43l6.41-.82a11.55,11.55,0,0,0,3.63,8.63,13.73,13.73,0,0,0,9.2,3c6.34,0,11.17-3.11,11.17-8.95,0-5.2-4.12-6.6-8.51-7.49Z"/></g></svg>